<?xml version="1.0" standalone="no"?><!-- Generator: Gravit.io --><svg xmlns="http://www.w3.org/2000/svg" xmlns:xlink="http://www.w3.org/1999/xlink" style="isolation:isolate" viewBox="0 0 64 38" width="64" height="38"><defs><clipPath id="_clipPath_q0xO4fgkBvqCrZS5h98sKjhRmlWf1VVp"><rect width="64" height="38"/></clipPath></defs><g clip-path="url(#_clipPath_q0xO4fgkBvqCrZS5h98sKjhRmlWf1VVp)"><path d=" M 58.831 15.544 C 58.93 15.606 59.024 15.642 59.041 15.625 C 59.069 15.597 58.963 14.094 58.738 11.328 C 58.689 10.735 58.63 9.939 58.605 9.559 C 58.5 7.916 58.35 6.023 58.261 5.2 C 58.238 4.986 58.197 4.481 58.169 4.077 C 58.141 3.674 58.106 3.208 58.09 3.042 C 58.074 2.875 58.034 2.288 58 1.736 L 57.938 0.732 L 58.401 0.728 C 59.209 0.721 60.213 0.642 60.273 0.582 C 60.39 0.463 57.919 0.645 57.667 0.773 C 57.426 0.895 57.324 0.891 56.965 0.748 C 56.822 0.691 56.81 0.7 56.892 0.803 C 56.947 0.871 57.018 1.296 57.049 1.747 C 57.08 2.198 57.123 2.78 57.144 3.042 C 57.166 3.303 57.221 4.072 57.268 4.75 C 57.314 5.429 57.37 6.069 57.392 6.174 C 57.413 6.279 57.452 6.695 57.477 7.099 C 57.557 8.391 57.699 10.476 57.783 11.587 C 57.828 12.181 57.907 13.288 57.96 14.047 C 58.012 14.807 58.069 15.475 58.088 15.531 C 58.113 15.609 58.183 15.61 58.386 15.533 C 58.594 15.454 58.691 15.457 58.831 15.544 Z  M 51.566 36.34 C 51.563 35.317 51.51 34.06 51.399 32.347 C 51.356 31.683 51.317 30.618 51.312 29.981 C 51.307 29.343 51.29 28.8 51.273 28.772 C 51.257 28.744 51.218 27.945 51.187 26.996 C 51.13 25.237 51.108 24.689 50.998 22.248 C 50.964 21.488 50.933 20.634 50.93 20.349 L 50.922 19.831 L 51.354 19.787 C 51.775 19.745 51.778 19.742 51.497 19.68 C 51.338 19.645 51.114 19.639 51 19.668 C 50.857 19.704 50.793 19.684 50.793 19.602 C 50.793 19.353 51.09 19.306 52.347 19.353 C 53.569 19.398 53.599 19.404 53.626 19.597 C 53.65 19.764 53.624 19.787 53.454 19.746 C 53.343 19.72 53.078 19.734 52.865 19.777 L 52.476 19.855 L 52.908 19.875 C 53.145 19.886 53.385 19.889 53.441 19.882 C 53.497 19.875 53.562 19.902 53.587 19.942 C 53.632 20.015 53.763 21.936 53.855 23.888 C 53.883 24.458 53.922 25.215 53.943 25.571 C 53.964 25.927 54.002 26.704 54.029 27.298 C 54.056 27.891 54.095 28.707 54.116 29.11 C 54.137 29.514 54.174 30.233 54.198 30.707 C 54.222 31.182 54.262 31.959 54.286 32.434 C 54.31 32.908 54.35 33.744 54.374 34.29 C 54.399 34.836 54.443 35.719 54.472 36.253 L 54.525 37.225 L 53.048 37.225 L 51.57 37.225 L 51.566 36.34 Z  M 56.792 37.462 C 56.639 37.385 56.619 37.286 56.615 36.588 C 56.611 35.798 56.554 34.634 56.404 32.304 C 56.359 31.616 56.302 30.625 56.275 30.103 C 56.249 29.581 56.209 28.94 56.187 28.679 C 56.165 28.418 56.127 27.777 56.102 27.254 C 56.078 26.732 56.04 26.091 56.017 25.83 C 55.976 25.355 55.934 24.678 55.843 22.982 C 55.816 22.483 55.773 21.832 55.747 21.536 L 55.699 20.996 L 55.048 20.996 L 54.396 20.996 L 54.458 20.673 C 54.492 20.495 54.519 20.283 54.518 20.204 C 54.517 20.124 54.571 20.013 54.638 19.957 C 54.705 19.902 54.785 19.715 54.818 19.542 C 54.85 19.368 54.933 19.139 55.002 19.032 C 55.128 18.839 55.126 18.838 54.651 18.838 C 54.389 18.838 54.16 18.797 54.144 18.748 C 54.124 18.69 53.648 18.656 52.832 18.655 C 51.489 18.653 51.311 18.629 51.311 18.454 C 51.311 18.384 51.183 18.349 50.944 18.355 C 50.606 18.363 50.575 18.345 50.55 18.126 C 50.534 17.989 50.47 17.889 50.397 17.889 C 50.306 17.889 50.287 17.949 50.326 18.105 C 50.359 18.237 50.343 18.32 50.284 18.32 C 50.232 18.32 50.189 18.374 50.189 18.441 C 50.189 18.553 50.014 18.666 49.84 18.666 C 49.798 18.666 49.717 18.501 49.659 18.299 L 49.554 17.932 L 49.504 18.191 C 49.467 18.384 49.399 18.457 49.239 18.479 C 48.955 18.517 48.894 18.585 48.81 18.957 L 48.739 19.27 L 49.165 19.27 C 49.578 19.27 50.016 19.456 50.016 19.632 C 50.016 19.677 49.89 19.708 49.736 19.699 C 49.581 19.691 49.261 19.695 49.023 19.708 C 48.615 19.731 48.624 19.735 49.19 19.781 C 49.741 19.827 49.793 19.848 49.847 20.052 C 49.88 20.174 49.933 21.145 49.965 22.21 C 49.997 23.275 50.04 24.399 50.059 24.708 C 50.093 25.232 50.124 26.116 50.233 29.585 C 50.286 31.28 50.338 32.933 50.411 35.196 C 50.442 36.145 50.503 36.967 50.547 37.022 C 50.599 37.086 50.588 37.137 50.516 37.166 C 50.445 37.195 50.46 37.213 50.556 37.218 C 50.639 37.221 50.707 37.169 50.707 37.101 C 50.707 36.962 51.003 36.839 51.137 36.922 C 51.185 36.952 51.225 37.029 51.225 37.093 C 51.225 37.174 51.05 37.229 50.664 37.271 C 49.909 37.352 47.797 37.284 47.689 37.176 C 47.64 37.127 47.583 36.388 47.559 35.495 C 47.472 32.271 47.427 30.49 47.386 28.592 C 47.34 26.509 47.247 23.266 47.21 22.421 C 47.197 22.136 47.182 21.679 47.177 21.406 L 47.168 20.91 L 46.865 20.91 C 46.633 20.91 46.565 20.875 46.57 20.759 C 46.582 20.46 46.835 19.156 46.955 18.769 C 47.013 18.585 46.998 18.575 46.769 18.631 C 46.632 18.665 46.501 18.718 46.477 18.749 C 46.412 18.833 45.873 19.04 45.829 18.996 C 45.809 18.976 45.782 18.831 45.77 18.675 C 45.75 18.406 45.742 18.4 45.616 18.554 C 45.476 18.727 45.134 18.899 45.226 18.751 C 45.255 18.704 45.238 18.666 45.187 18.666 C 45.137 18.666 45.096 18.724 45.096 18.795 C 45.096 18.987 44.864 18.952 44.812 18.752 C 44.787 18.657 44.788 18.424 44.813 18.233 C 44.85 17.958 44.903 17.875 45.067 17.834 C 45.261 17.786 45.264 17.775 45.12 17.667 C 44.989 17.569 44.95 17.573 44.858 17.693 C 44.799 17.771 44.751 17.923 44.751 18.03 C 44.751 18.263 44.6 18.377 44.467 18.244 C 44.347 18.124 44.06 18.117 44.06 18.234 C 44.06 18.281 43.992 18.321 43.909 18.322 C 43.78 18.323 43.777 18.335 43.887 18.406 C 43.978 18.465 44.045 18.451 44.113 18.362 C 44.222 18.217 44.405 18.19 44.405 18.32 C 44.405 18.368 44.464 18.407 44.535 18.407 C 44.628 18.407 44.664 18.503 44.664 18.752 C 44.664 19.001 44.628 19.097 44.535 19.097 C 44.464 19.097 44.405 19.058 44.405 19.011 C 44.405 18.963 44.357 18.934 44.297 18.946 C 44.238 18.958 44.189 18.909 44.189 18.838 C 44.189 18.767 44.08 18.654 43.946 18.587 C 43.775 18.502 43.714 18.417 43.743 18.306 C 43.774 18.187 43.738 18.149 43.599 18.154 C 43.496 18.158 43.461 18.181 43.52 18.205 C 43.58 18.229 43.628 18.381 43.628 18.543 C 43.628 18.781 43.595 18.838 43.456 18.838 C 43.361 18.838 43.283 18.873 43.283 18.915 C 43.283 19.017 42.9 19.11 42.737 19.048 C 42.667 19.021 42.59 18.924 42.566 18.832 C 42.514 18.635 42.287 18.611 42.216 18.795 C 42.159 18.943 41.816 18.973 41.816 18.83 C 41.816 18.777 42.015 18.54 42.258 18.302 C 42.597 17.97 42.672 17.851 42.582 17.794 C 42.484 17.732 42.486 17.718 42.593 17.716 C 42.708 17.714 42.708 17.704 42.593 17.63 C 42.488 17.562 42.5 17.546 42.657 17.545 C 42.813 17.544 42.851 17.495 42.851 17.298 C 42.851 17.032 42.652 16.804 42.377 16.752 C 42.251 16.728 42.204 16.651 42.204 16.47 C 42.204 16.333 42.161 16.206 42.107 16.188 C 42.048 16.168 42.026 16.234 42.05 16.361 C 42.106 16.656 41.357 17.318 41.054 17.242 C 40.862 17.194 40.856 17.201 40.985 17.33 C 41.062 17.406 41.125 17.521 41.125 17.584 C 41.125 17.646 41.183 17.72 41.255 17.747 C 41.326 17.775 41.384 17.852 41.384 17.92 C 41.384 18.062 41.202 18.148 40.902 18.148 C 40.745 18.148 40.692 18.099 40.687 17.953 C 40.682 17.827 40.663 17.803 40.63 17.886 C 40.603 17.955 40.499 18.084 40.4 18.173 C 40.3 18.261 40.273 18.305 40.34 18.27 C 40.42 18.229 40.44 18.241 40.399 18.308 C 40.364 18.364 40.306 18.391 40.269 18.368 C 40.232 18.345 40.12 18.403 40.02 18.496 C 39.811 18.69 39.651 18.711 39.502 18.562 C 39.422 18.481 39.399 18.501 39.399 18.648 C 39.399 18.753 39.439 18.838 39.489 18.838 C 39.539 18.838 39.679 18.938 39.802 19.061 C 39.993 19.252 40.011 19.313 39.929 19.492 C 39.839 19.69 39.571 19.789 39.571 19.625 C 39.571 19.583 39.494 19.529 39.399 19.504 C 39.225 19.458 39.151 19.184 39.312 19.184 C 39.36 19.184 39.399 19.145 39.399 19.097 C 39.399 19.05 39.34 19.011 39.269 19.011 C 39.193 19.011 39.139 19.091 39.137 19.205 C 39.132 19.527 38.586 20.047 38.252 20.047 C 38.09 20.047 37.544 19.68 37.351 19.442 C 37.293 19.371 37.245 19.245 37.243 19.162 C 37.241 19.04 37.161 19.01 36.831 19.006 C 36.605 19.003 36.198 18.994 35.925 18.984 C 35.281 18.963 35.197 19.131 35.778 19.28 C 36.162 19.378 36.205 19.413 36.205 19.631 C 36.205 19.79 36.25 19.874 36.334 19.874 C 36.415 19.874 36.464 19.793 36.464 19.66 C 36.464 19.503 36.522 19.431 36.681 19.391 C 36.949 19.324 37.136 19.468 37.171 19.771 C 37.19 19.938 37.268 20.024 37.456 20.088 C 37.833 20.215 37.945 20.351 37.881 20.604 C 37.832 20.801 37.784 20.824 37.409 20.824 C 37.18 20.824 36.968 20.785 36.939 20.737 C 36.74 20.417 36.351 21.043 36.385 21.627 C 36.433 22.44 36.539 22.377 35.131 22.377 L 33.884 22.377 L 33.858 22.744 C 33.833 23.079 33.809 23.114 33.576 23.14 C 33.256 23.177 33.097 22.977 33.097 22.539 C 33.097 22.292 33.138 22.204 33.27 22.162 C 33.472 22.097 33.489 22.005 33.324 21.868 C 33.23 21.791 33.195 21.807 33.159 21.944 C 33.092 22.201 32.876 22.243 32.672 22.039 C 32.574 21.94 32.493 21.824 32.493 21.78 C 32.493 21.737 32.449 21.687 32.396 21.669 C 32.282 21.631 32.377 21.083 32.497 21.083 C 32.539 21.083 32.552 21.025 32.525 20.955 C 32.482 20.843 32.461 20.843 32.349 20.955 C 32.184 21.12 31.975 21.119 31.975 20.953 C 31.975 20.882 32.016 20.824 32.067 20.824 C 32.117 20.824 32.133 20.872 32.103 20.932 C 32.073 20.991 32.1 20.979 32.163 20.905 C 32.226 20.83 32.34 20.746 32.416 20.718 C 32.493 20.689 32.577 20.585 32.602 20.486 C 32.639 20.345 32.609 20.305 32.463 20.304 C 32.327 20.303 32.308 20.283 32.394 20.229 C 32.458 20.189 32.496 20.082 32.478 19.993 C 32.455 19.873 32.386 19.838 32.213 19.858 C 31.982 19.886 31.98 19.88 31.995 19.4 C 32.004 19.117 31.97 18.889 31.914 18.854 C 31.86 18.821 31.825 18.671 31.836 18.521 L 31.855 18.248 L 31.644 18.414 C 31.529 18.505 31.318 18.579 31.177 18.579 C 30.951 18.579 30.924 18.605 30.959 18.787 C 30.99 18.949 30.968 18.985 30.861 18.948 C 30.769 18.917 30.781 18.947 30.896 19.04 C 31.051 19.164 31.053 19.178 30.918 19.181 C 30.817 19.183 30.769 19.249 30.773 19.378 C 30.777 19.485 30.8 19.523 30.824 19.464 C 30.885 19.312 31.004 19.33 31.211 19.522 C 31.433 19.729 31.354 19.874 31.02 19.874 C 30.829 19.874 30.767 19.914 30.767 20.037 C 30.767 20.127 30.844 20.219 30.939 20.244 C 31.034 20.269 31.112 20.254 31.112 20.211 C 31.112 20.082 31.349 20.123 31.402 20.263 C 31.434 20.346 31.399 20.394 31.303 20.398 C 31.18 20.403 31.184 20.416 31.328 20.478 C 31.466 20.538 31.471 20.554 31.356 20.559 C 31.186 20.566 30.816 21.126 30.896 21.256 C 30.927 21.305 30.901 21.335 30.838 21.322 C 30.749 21.304 30.714 21.544 30.68 22.377 L 30.637 23.456 L 30.15 23.534 C 29.468 23.642 29.385 23.593 29.385 23.08 C 29.385 22.621 29.455 22.55 29.901 22.55 C 30.156 22.55 30.332 22.334 30.088 22.32 C 30.01 22.316 28.937 22.288 27.702 22.259 C 26.417 22.228 25.446 22.17 25.431 22.124 C 25.416 22.079 25.348 22.063 25.28 22.089 C 25.213 22.115 25.133 22.074 25.104 21.998 C 25.025 21.791 25.141 21.428 25.287 21.428 C 25.441 21.428 25.466 20.909 25.318 20.762 C 25.248 20.691 25.251 20.464 25.331 19.903 C 25.405 19.386 25.46 19.196 25.503 19.313 C 25.537 19.408 25.545 19.521 25.52 19.564 C 25.495 19.607 25.516 19.616 25.566 19.585 C 25.616 19.554 25.636 19.445 25.609 19.343 C 25.576 19.215 25.592 19.176 25.66 19.218 C 25.729 19.261 25.76 19.181 25.76 18.963 C 25.76 18.69 25.784 18.652 25.929 18.69 C 26.023 18.714 26.144 18.68 26.199 18.614 C 26.284 18.512 26.165 18.493 25.433 18.493 C 24.655 18.493 24.57 18.478 24.596 18.342 C 24.612 18.259 24.63 18.094 24.637 17.975 C 24.647 17.803 24.662 17.79 24.71 17.91 C 24.765 18.05 24.777 18.049 24.874 17.892 C 25.02 17.66 24.889 17.61 24.496 17.747 C 24.313 17.811 24.105 17.846 24.034 17.826 C 23.926 17.795 23.924 17.803 24.025 17.873 C 24.091 17.92 24.122 18.017 24.094 18.091 C 24.057 18.186 24.109 18.233 24.276 18.259 C 24.404 18.278 24.314 18.3 24.077 18.306 C 23.839 18.312 23.684 18.289 23.731 18.254 C 23.779 18.219 23.826 18.11 23.836 18.01 C 23.851 17.863 23.784 17.814 23.472 17.742 C 23.261 17.694 23.108 17.685 23.131 17.723 C 23.209 17.848 23.009 17.894 22.9 17.776 C 22.746 17.612 22.394 17.697 22.394 17.899 C 22.394 18.007 22.328 18.065 22.199 18.072 C 21.872 18.089 21.753 18.053 21.568 17.881 C 21.353 17.682 21.241 17.674 21.099 17.846 C 20.957 18.017 21.126 18.234 21.402 18.234 C 21.51 18.234 21.621 18.292 21.648 18.363 C 21.684 18.457 21.638 18.493 21.484 18.493 C 21.29 18.493 21.227 18.578 21.265 18.785 C 21.29 18.92 20.765 18.763 20.583 18.582 C 20.487 18.486 20.36 18.41 20.3 18.413 C 20.214 18.419 20.214 18.429 20.3 18.464 C 20.452 18.525 20.435 18.752 20.279 18.752 C 20.207 18.752 20.149 18.693 20.149 18.621 C 20.149 18.524 20.093 18.504 19.933 18.544 C 19.694 18.604 19.682 18.571 19.796 18.176 L 19.874 17.904 L 19.407 17.875 C 19.037 17.852 18.94 17.872 18.939 17.975 C 18.939 18.053 18.913 18.069 18.875 18.016 C 18.84 17.968 18.685 17.916 18.531 17.902 C 18.266 17.877 18.25 17.891 18.25 18.16 C 18.25 18.443 18.251 18.443 18.385 18.253 C 18.458 18.148 18.569 18.061 18.63 18.061 C 18.758 18.061 19.027 18.334 19.027 18.464 C 19.027 18.565 18.736 18.717 18.403 18.789 C 18.215 18.83 18.179 18.814 18.22 18.706 C 18.248 18.633 18.237 18.578 18.196 18.586 C 18.155 18.594 17.96 18.595 17.764 18.589 C 17.475 18.581 17.395 18.542 17.345 18.385 C 17.292 18.222 17.276 18.215 17.242 18.34 C 17.22 18.422 17.263 18.577 17.338 18.683 C 17.412 18.79 17.473 18.958 17.473 19.057 C 17.473 19.156 17.53 19.312 17.6 19.404 C 17.67 19.497 17.728 19.661 17.729 19.77 C 17.731 19.88 17.786 20.074 17.851 20.202 C 17.917 20.33 17.998 20.561 18.031 20.716 L 18.091 20.996 L 17.351 20.996 L 16.61 20.996 L 16.603 21.277 C 16.599 21.431 16.586 21.654 16.573 21.773 C 16.506 22.396 16.433 23.169 16.396 23.629 C 16.343 24.302 16.284 24.915 16.181 25.873 C 16.134 26.301 16.073 26.961 16.045 27.341 C 15.968 28.369 15.929 28.852 15.886 29.283 C 15.865 29.497 15.822 29.963 15.79 30.319 C 15.759 30.675 15.721 31.102 15.706 31.268 C 15.691 31.435 15.636 31.92 15.584 32.347 C 15.532 32.775 15.467 33.493 15.441 33.944 C 15.338 35.709 15.32 35.983 15.285 36.26 C 15.266 36.418 15.216 36.58 15.175 36.621 C 15.073 36.719 11.726 36.746 9.987 36.662 C 8.458 36.589 8.46 36.59 8.542 36.059 C 8.564 35.917 8.599 35.566 8.62 35.281 C 8.642 34.995 8.697 34.589 8.745 34.379 C 8.792 34.169 8.815 33.972 8.797 33.943 C 8.779 33.913 8.798 33.639 8.84 33.334 C 8.882 33.029 8.935 32.604 8.958 32.391 C 8.981 32.177 9.022 31.808 9.05 31.571 C 9.078 31.333 9.116 30.964 9.136 30.75 C 9.156 30.537 9.195 30.168 9.223 29.93 C 9.25 29.693 9.29 29.324 9.311 29.11 C 9.332 28.897 9.451 27.848 9.576 26.78 C 9.701 25.712 9.835 24.546 9.875 24.19 C 9.915 23.834 10.012 23.005 10.091 22.348 C 10.17 21.69 10.214 21.098 10.188 21.031 C 10.153 20.941 9.964 20.91 9.445 20.91 C 8.858 20.91 8.742 20.886 8.702 20.759 C 8.601 20.437 8.488 20.199 8.453 20.233 C 8.433 20.253 8.4 20.443 8.379 20.655 C 8.359 20.866 8.298 21.35 8.244 21.73 C 8.191 22.11 8.128 22.595 8.104 22.809 C 8.081 23.023 8.039 23.392 8.011 23.629 C 7.983 23.866 7.96 24.119 7.96 24.19 C 7.959 24.261 7.927 24.475 7.888 24.665 C 7.849 24.855 7.794 25.243 7.765 25.528 C 7.736 25.813 7.697 26.104 7.677 26.175 C 7.658 26.247 7.621 26.583 7.595 26.923 C 7.569 27.262 7.528 27.593 7.505 27.656 C 7.482 27.72 7.445 27.947 7.424 28.161 C 7.402 28.374 7.343 28.86 7.293 29.24 C 7.166 30.2 7.049 31.214 6.989 31.873 C 6.978 31.991 6.961 32.108 6.951 32.132 C 6.924 32.194 6.839 32.928 6.841 33.081 C 6.842 33.152 6.789 33.502 6.723 33.858 C 6.657 34.214 6.584 34.771 6.56 35.095 C 6.499 35.908 6.426 36.252 6.29 36.365 C 6.147 36.484 0.141 36.5 0.023 36.382 C -0.022 36.337 0.001 36.066 0.08 35.725 C 0.154 35.406 0.219 35.001 0.224 34.825 C 0.229 34.649 0.253 34.47 0.278 34.426 C 0.303 34.383 0.333 34.247 0.344 34.124 C 0.423 33.303 0.477 32.878 0.51 32.824 C 0.531 32.79 0.57 32.517 0.598 32.218 C 0.625 31.918 0.662 31.649 0.68 31.619 C 0.699 31.589 0.737 31.333 0.765 31.05 C 0.793 30.766 0.849 30.391 0.891 30.215 C 0.932 30.04 0.946 29.876 0.922 29.852 C 0.898 29.828 0.907 29.739 0.943 29.654 C 1.007 29.498 1.024 29.393 1.102 28.679 C 1.145 28.287 1.262 27.528 1.429 26.552 C 1.479 26.261 1.531 25.911 1.546 25.775 C 1.56 25.639 1.619 25.198 1.678 24.794 C 1.736 24.391 1.793 23.964 1.805 23.845 C 1.849 23.408 2.036 22.165 2.065 22.118 C 2.092 22.074 2.267 20.899 2.321 20.392 C 2.399 19.664 2.477 19.442 2.659 19.431 C 2.759 19.425 3.25 19.391 3.748 19.355 L 4.655 19.289 L 3.511 19.315 C 2.619 19.336 2.367 19.317 2.367 19.23 C 2.367 19.169 2.419 19.075 2.482 19.023 C 2.595 18.929 3.522 18.841 4.593 18.822 C 4.891 18.817 5.158 18.776 5.185 18.731 C 5.213 18.686 5.236 18.462 5.236 18.232 C 5.236 17.955 5.276 17.798 5.355 17.767 C 5.421 17.742 5.475 17.671 5.475 17.608 C 5.475 17.546 5.557 17.425 5.657 17.339 C 5.786 17.229 5.812 17.156 5.748 17.092 C 5.691 17.034 5.676 16.789 5.709 16.438 C 5.747 16.029 5.734 15.893 5.663 15.937 C 5.485 16.047 3.322 16.015 3.184 15.901 C 3.046 15.786 3.011 15.472 3.136 15.472 C 3.179 15.472 3.232 15.287 3.254 15.062 C 3.293 14.657 3.539 12.883 3.791 11.199 C 3.861 10.724 3.961 10.044 4.012 9.688 C 4.062 9.332 4.176 8.614 4.265 8.091 C 4.353 7.569 4.489 6.656 4.566 6.063 C 4.643 5.469 4.765 4.664 4.836 4.274 C 4.908 3.883 4.983 3.365 5.004 3.122 C 5.024 2.879 5.077 2.539 5.122 2.365 C 5.167 2.191 5.23 1.79 5.262 1.475 L 5.32 0.9 L 6.843 0.866 C 7.681 0.847 8.398 0.847 8.437 0.866 C 8.477 0.886 9.022 0.896 9.65 0.889 C 10.839 0.875 11.086 0.912 11.086 1.102 C 11.086 1.256 10.122 1.353 9.317 1.28 C 8.899 1.243 8.613 1.258 8.463 1.326 C 8.185 1.453 7.807 1.312 7.803 1.08 C 7.8 0.935 7.796 0.934 7.712 1.078 C 7.637 1.207 7.489 1.229 6.708 1.229 C 6.204 1.229 5.819 1.256 5.853 1.29 C 5.886 1.324 6.31 1.353 6.795 1.355 L 7.676 1.358 L 7.666 1.704 C 7.655 2.08 7.646 2.148 7.376 3.991 C 7.275 4.68 7.172 5.398 7.149 5.588 C 7.093 6.033 7.081 6.12 6.858 7.66 C 6.756 8.372 6.659 9.052 6.643 9.17 C 6.627 9.289 6.532 9.969 6.431 10.681 C 6.256 11.912 6.033 13.521 5.946 14.177 C 5.924 14.343 5.893 14.576 5.876 14.695 C 5.786 15.33 5.742 15.847 5.785 15.752 C 5.851 15.609 6.51 15.609 6.513 15.752 C 6.517 15.911 6.696 15.575 6.724 15.356 C 6.737 15.254 6.795 14.839 6.853 14.436 C 6.91 14.032 6.973 13.566 6.993 13.4 C 7.013 13.234 7.044 13.001 7.062 12.882 C 7.115 12.547 7.642 8.479 7.683 8.091 C 7.704 7.901 7.743 7.61 7.771 7.444 C 7.832 7.085 7.805 7.276 8.201 4.423 C 8.376 3.165 8.537 1.967 8.56 1.762 C 8.599 1.405 8.789 1.194 8.915 1.367 C 8.945 1.41 9.437 1.445 10.007 1.445 L 11.042 1.445 L 11.022 1.66 C 11.011 1.779 10.999 2.032 10.997 2.222 C 10.994 2.411 10.955 2.707 10.909 2.877 C 10.827 3.19 10.75 3.74 10.7 4.38 C 10.685 4.569 10.612 5.152 10.537 5.674 C 10.463 6.197 10.381 6.838 10.356 7.099 C 10.331 7.36 10.288 7.748 10.259 7.962 C 10.231 8.175 10.206 8.506 10.205 8.696 C 10.205 8.885 10.171 9.061 10.132 9.086 C 10.092 9.111 10.053 9.325 10.045 9.561 C 10.036 9.797 9.998 10.126 9.959 10.293 C 9.921 10.459 9.868 10.847 9.842 11.156 C 9.816 11.464 9.771 11.892 9.741 12.105 C 9.712 12.319 9.679 12.571 9.668 12.666 C 9.658 12.761 9.623 13.014 9.591 13.227 C 9.531 13.62 9.436 14.542 9.43 14.781 C 9.427 14.898 9.4 15.041 9.233 15.839 L 9.183 16.076 L 8.025 16.076 C 7.345 16.076 6.844 16.04 6.813 15.99 C 6.715 15.832 6.627 15.9 6.533 16.205 C 6.446 16.49 6.452 16.508 6.639 16.508 C 6.748 16.508 6.86 16.449 6.887 16.378 C 6.952 16.209 7.153 16.213 7.328 16.388 C 7.44 16.5 7.624 16.522 8.262 16.503 C 8.699 16.49 9.222 16.477 9.424 16.474 C 9.629 16.471 9.791 16.427 9.791 16.374 C 9.791 16.31 10.031 16.292 10.545 16.319 C 11.228 16.355 11.288 16.346 11.185 16.221 C 11.075 16.089 11.121 15.862 11.243 15.937 C 11.275 15.957 11.304 15.889 11.306 15.787 C 11.32 15.301 11.443 13.95 11.556 13.055 C 11.624 12.509 11.699 11.868 11.722 11.63 C 11.745 11.393 11.803 10.927 11.851 10.595 C 11.899 10.262 12 9.408 12.074 8.696 C 12.387 5.689 12.78 2.328 12.863 1.932 C 12.895 1.782 12.95 1.74 13.072 1.772 C 13.164 1.796 13.444 1.764 13.694 1.701 L 14.15 1.586 L 13.524 1.634 C 12.935 1.68 12.898 1.672 12.898 1.506 C 12.898 1.308 12.907 1.305 14.221 1.1 C 14.687 1.027 15.104 0.989 15.147 1.015 C 15.189 1.042 15.321 1 15.438 0.923 C 15.556 0.846 15.684 0.801 15.722 0.825 C 15.759 0.848 16.315 0.798 16.956 0.714 C 18.157 0.556 18.336 0.562 18.336 0.758 C 18.336 0.83 18.182 0.894 17.926 0.929 C 17.701 0.96 17.38 1.02 17.214 1.063 C 17.048 1.106 16.74 1.142 16.529 1.142 C 16.27 1.142 16.089 1.197 15.968 1.309 C 15.811 1.457 15.748 1.465 15.424 1.378 C 15.146 1.303 14.989 1.305 14.77 1.384 C 14.612 1.441 14.408 1.489 14.316 1.49 C 14.171 1.493 14.168 1.504 14.289 1.574 C 14.376 1.625 14.537 1.624 14.72 1.572 C 14.881 1.526 15.046 1.488 15.088 1.488 C 15.18 1.488 15.152 1.801 14.706 5.847 C 14.518 7.556 14.196 10.561 13.99 12.524 C 13.712 15.175 13.584 16.112 13.494 16.169 C 13.428 16.211 13.179 16.249 12.941 16.253 C 11.974 16.27 12.022 16.546 13.006 16.628 L 13.675 16.684 L 13.675 16.344 C 13.675 15.82 13.738 15.731 14.105 15.731 C 14.394 15.731 14.689 15.564 14.585 15.461 C 14.564 15.439 14.581 15.171 14.624 14.864 C 14.667 14.557 14.743 13.84 14.793 13.271 C 14.844 12.701 14.921 11.885 14.966 11.458 C 15.011 11.031 15.07 10.428 15.097 10.12 C 15.148 9.543 15.298 8.084 15.531 5.89 C 15.605 5.202 15.701 4.289 15.746 3.862 C 15.929 2.112 16.022 1.359 16.061 1.296 C 16.14 1.169 16.351 1.229 16.354 1.38 C 16.356 1.524 16.361 1.524 16.444 1.38 C 16.557 1.186 16.696 1.186 16.699 1.38 C 16.702 1.524 16.707 1.524 16.817 1.38 C 16.948 1.207 17.128 1.179 17.128 1.332 C 17.128 1.388 17.182 1.361 17.248 1.27 C 17.346 1.136 17.392 1.126 17.497 1.213 C 17.601 1.299 17.636 1.293 17.679 1.182 C 17.713 1.092 17.789 1.063 17.897 1.097 C 17.988 1.126 18.088 1.109 18.118 1.06 C 18.264 0.823 18.336 1.015 18.303 1.553 C 18.257 2.301 18.096 4.085 17.989 5.027 C 17.943 5.431 17.866 6.227 17.818 6.797 C 17.77 7.366 17.714 8.007 17.693 8.221 C 17.672 8.434 17.633 8.881 17.606 9.214 C 17.579 9.546 17.52 10.129 17.476 10.508 C 17.431 10.888 17.37 11.49 17.339 11.846 C 17.308 12.202 17.27 12.63 17.255 12.796 C 17.239 12.962 17.18 13.68 17.123 14.391 C 17.045 15.371 16.988 15.708 16.887 15.782 C 16.813 15.836 16.287 15.923 15.718 15.975 C 14.831 16.056 14.669 16.052 14.589 15.943 C 14.516 15.845 14.493 15.904 14.484 16.205 C 14.479 16.419 14.508 16.594 14.549 16.594 C 14.591 16.594 14.625 16.555 14.625 16.508 C 14.625 16.46 14.683 16.421 14.754 16.421 C 14.825 16.421 14.884 16.46 14.884 16.508 C 14.884 16.561 15.301 16.594 15.963 16.594 C 16.594 16.594 17.042 16.56 17.042 16.511 C 17.042 16.465 17.148 16.429 17.279 16.43 C 17.705 16.432 17.947 16.38 18.017 16.27 C 18.055 16.211 18.135 16.162 18.195 16.162 C 18.254 16.162 18.341 16.055 18.387 15.925 C 18.458 15.725 18.444 15.673 18.296 15.596 C 18.169 15.53 18.126 15.432 18.141 15.238 C 18.155 15.067 18.116 14.954 18.033 14.922 C 17.963 14.895 17.905 14.775 17.905 14.654 C 17.905 14.461 17.941 14.435 18.229 14.429 C 18.407 14.426 18.62 14.41 18.703 14.394 C 18.786 14.378 18.854 14.4 18.854 14.444 C 18.854 14.487 18.951 14.522 19.069 14.522 C 19.225 14.522 19.297 14.58 19.337 14.738 C 19.39 14.95 19.407 14.954 20.232 14.954 C 21.018 14.954 21.078 14.966 21.167 15.148 L 21.262 15.342 L 21.32 15.148 C 21.376 14.96 21.412 14.954 22.48 14.954 C 23.509 14.954 23.585 14.965 23.627 15.126 C 23.686 15.35 23.861 15.35 23.861 15.126 C 23.861 14.963 23.919 14.954 24.983 14.954 C 26.048 14.954 26.105 14.963 26.105 15.126 C 26.105 15.221 26.144 15.299 26.192 15.299 C 26.239 15.299 26.278 15.357 26.278 15.428 C 26.278 15.499 26.345 15.713 26.428 15.903 L 26.578 16.249 L 27.14 16.257 C 27.449 16.262 28.087 16.28 28.558 16.298 C 29.29 16.326 29.429 16.309 29.526 16.182 C 29.677 15.983 29.673 15.775 29.515 15.644 C 29.337 15.497 29.348 14.828 29.534 14.514 C 29.627 14.357 29.753 14.263 29.874 14.263 C 30.101 14.263 30.335 14.562 30.335 14.853 C 30.335 15.005 30.371 15.045 30.472 15.006 C 30.547 14.977 30.644 14.954 30.687 14.954 C 30.731 14.954 30.767 14.76 30.767 14.522 C 30.767 14.214 30.733 14.091 30.648 14.091 C 30.489 14.091 30.402 13.516 30.529 13.311 C 30.584 13.223 30.717 13.129 30.823 13.102 C 31.013 13.055 31.63 13.287 31.63 13.406 C 31.63 13.513 31.385 13.942 31.291 14 C 31.241 14.031 31.196 14.373 31.19 14.764 C 31.184 15.153 31.144 15.472 31.1 15.472 C 31.056 15.472 30.987 15.559 30.946 15.666 C 30.891 15.811 30.914 15.899 31.038 16.016 C 31.243 16.211 31.172 16.341 30.869 16.324 C 30.741 16.316 30.598 16.321 30.551 16.333 C 30.161 16.434 30.008 16.13 30.378 15.99 C 30.497 15.945 30.594 15.848 30.594 15.776 C 30.594 15.579 30.491 15.625 30.231 15.938 L 29.998 16.22 L 30.188 16.494 C 30.293 16.645 30.475 16.793 30.594 16.823 C 30.713 16.852 30.858 16.914 30.917 16.961 C 31.072 17.083 31.456 16.962 31.467 16.786 C 31.472 16.704 31.469 16.55 31.461 16.444 C 31.45 16.31 31.515 16.218 31.674 16.146 C 31.859 16.062 31.881 16.024 31.784 15.951 C 31.641 15.842 31.371 15.46 31.371 15.366 C 31.371 15.329 31.429 15.299 31.5 15.299 C 31.572 15.299 31.63 15.26 31.63 15.213 C 31.63 15.109 31.973 15.1 32.129 15.199 C 32.19 15.238 32.215 15.334 32.185 15.414 C 32.142 15.526 32.18 15.558 32.354 15.558 C 32.52 15.558 32.579 15.603 32.579 15.726 C 32.579 15.818 32.54 15.917 32.493 15.947 C 32.446 15.976 32.407 16.08 32.407 16.178 C 32.407 16.348 32.444 16.355 33.148 16.318 C 33.849 16.281 33.968 16.236 34.067 15.971 C 34.08 15.938 34.257 15.889 34.46 15.864 C 34.868 15.813 35.342 15.601 35.342 15.47 C 35.342 15.423 35.443 15.385 35.567 15.385 C 35.772 15.385 35.788 15.41 35.748 15.666 C 35.724 15.82 35.687 16.024 35.665 16.119 C 35.643 16.214 35.642 16.243 35.662 16.184 C 35.722 16.012 36 16.059 36.136 16.264 C 36.234 16.411 36.277 16.427 36.333 16.337 C 36.38 16.26 36.371 16.242 36.304 16.284 C 36.25 16.317 36.205 16.304 36.205 16.254 C 36.205 16.203 36.263 16.162 36.334 16.162 C 36.405 16.162 36.464 16.219 36.464 16.287 C 36.464 16.39 36.512 16.395 36.735 16.318 C 36.936 16.248 37.049 16.249 37.166 16.322 C 37.361 16.444 37.845 16.453 37.845 16.335 C 37.845 16.287 37.903 16.249 37.974 16.249 C 38.046 16.249 38.104 16.287 38.104 16.335 C 38.104 16.385 38.392 16.421 38.794 16.421 C 39.404 16.421 39.485 16.403 39.485 16.264 C 39.485 16.06 40.85 14.695 41.054 14.695 C 41.143 14.695 41.216 14.629 41.221 14.544 C 41.227 14.461 41.573 14.072 41.991 13.681 C 42.757 12.962 43.11 12.792 43.11 13.141 C 43.11 13.236 43.081 13.314 43.046 13.314 C 43.01 13.314 42.972 13.437 42.962 13.588 C 42.951 13.738 42.903 13.901 42.854 13.95 C 42.805 13.999 42.765 14.145 42.765 14.275 C 42.765 14.406 42.731 14.533 42.689 14.559 C 42.627 14.597 42.504 15.023 42.47 15.313 C 42.466 15.345 42.434 15.4 42.398 15.436 C 42.303 15.531 42.319 15.817 42.42 15.817 C 42.467 15.817 42.511 15.778 42.517 15.731 C 42.523 15.683 42.537 15.606 42.549 15.558 C 42.561 15.511 42.576 15.433 42.582 15.385 C 42.588 15.338 42.66 15.302 42.744 15.306 C 42.834 15.31 42.851 15.33 42.787 15.356 C 42.727 15.38 42.679 15.465 42.68 15.544 C 42.681 15.668 42.693 15.67 42.765 15.558 C 42.84 15.443 42.849 15.443 42.849 15.558 C 42.849 15.629 42.811 15.746 42.765 15.817 C 42.696 15.924 42.681 15.925 42.68 15.824 C 42.679 15.757 42.658 15.723 42.632 15.749 C 42.538 15.843 42.956 16.421 43.119 16.421 C 43.229 16.421 43.286 16.486 43.293 16.615 C 43.301 16.762 43.313 16.772 43.343 16.659 C 43.391 16.473 43.628 16.457 43.628 16.64 C 43.628 16.744 43.664 16.754 43.795 16.683 C 44.025 16.561 44.382 16.571 44.434 16.702 C 44.458 16.761 44.481 16.722 44.485 16.615 C 44.491 16.425 44.708 16.34 44.765 16.505 C 44.802 16.613 45.484 16.643 45.851 16.554 C 46.087 16.497 46.132 16.51 46.132 16.637 C 46.132 16.748 46.16 16.764 46.24 16.699 C 46.371 16.59 48.894 16.583 48.894 16.691 C 48.894 16.842 49.143 16.762 49.196 16.594 C 49.25 16.425 49.498 16.346 49.498 16.498 C 49.498 16.539 49.599 16.593 49.721 16.616 L 49.944 16.659 L 49.887 16.165 C 49.841 15.767 49.857 15.643 49.972 15.528 C 50.14 15.36 50.503 15.339 50.558 15.493 C 50.579 15.553 50.626 15.574 50.661 15.541 C 50.741 15.467 50.725 14.091 50.626 12.494 C 50.585 11.829 50.551 11.227 50.55 11.156 C 50.55 11.084 50.527 10.58 50.499 10.034 C 50.388 7.868 50.364 7.358 50.318 6.279 C 50.292 5.661 50.253 5.001 50.233 4.811 C 50.212 4.621 50.17 3.728 50.138 2.826 C 50.107 1.924 50.064 1.156 50.043 1.12 C 49.937 0.939 50.121 0.728 50.386 0.727 C 50.67 0.725 51.354 0.648 51.354 0.618 C 51.354 0.608 51.492 0.592 51.661 0.582 C 51.83 0.572 52.108 0.538 52.278 0.506 L 52.589 0.447 L 52.639 0.86 C 52.666 1.086 52.71 1.622 52.736 2.049 C 52.761 2.476 52.8 3.117 52.822 3.473 C 52.859 4.063 52.968 5.923 53.084 7.919 C 53.109 8.346 53.146 8.948 53.166 9.257 C 53.186 9.565 53.225 10.206 53.253 10.681 C 53.282 11.156 53.321 11.797 53.34 12.105 C 53.36 12.414 53.399 13.152 53.427 13.745 C 53.455 14.339 53.499 14.931 53.524 15.061 C 53.55 15.2 53.521 15.345 53.454 15.411 C 53.327 15.536 50.929 15.858 50.786 15.769 C 50.728 15.734 50.706 15.875 50.723 16.17 C 50.747 16.585 50.771 16.631 50.987 16.689 C 51.206 16.747 51.225 16.732 51.225 16.5 C 51.225 16.192 51.357 16.18 51.621 16.464 C 51.856 16.719 52.193 16.744 52.606 16.538 C 52.867 16.408 52.9 16.407 52.992 16.533 C 53.079 16.652 53.388 16.674 55.224 16.691 C 56.397 16.702 57.307 16.743 57.247 16.781 C 57.173 16.828 57.201 16.851 57.332 16.852 C 57.447 16.852 57.526 16.801 57.526 16.723 C 57.526 16.55 57.632 16.56 57.981 16.766 L 58.273 16.939 L 58.191 16.427 C 58.115 15.956 58.094 15.921 57.925 15.982 C 57.824 16.019 57.392 16.055 56.965 16.064 C 56.538 16.072 56.03 16.101 55.838 16.128 C 55.599 16.161 55.457 16.14 55.392 16.061 C 55.335 15.993 55.239 14.994 55.158 13.615 C 55.083 12.334 54.965 10.431 54.897 9.386 C 54.828 8.342 54.727 6.749 54.672 5.847 C 54.617 4.945 54.525 3.527 54.467 2.696 C 54.408 1.865 54.39 1.152 54.427 1.11 C 54.463 1.068 54.448 0.962 54.393 0.875 C 54.328 0.771 54.323 0.686 54.377 0.633 C 54.456 0.557 55.495 0.438 57.181 0.313 C 57.584 0.283 58.264 0.228 58.691 0.191 C 60.015 0.075 60.459 0.088 60.519 0.245 C 60.548 0.321 60.518 0.417 60.452 0.459 C 60.382 0.504 60.373 0.536 60.429 0.537 C 60.483 0.538 60.552 0.703 60.581 0.905 C 60.635 1.278 61.036 5.668 61.28 8.566 C 61.354 9.444 61.433 10.357 61.455 10.595 C 61.529 11.374 61.663 12.913 61.715 13.573 C 61.743 13.929 61.801 14.511 61.842 14.867 C 61.934 15.647 61.868 15.751 61.262 15.783 C 59.267 15.888 59.098 15.912 59.046 16.105 C 58.968 16.396 58.985 16.68 59.08 16.68 C 59.127 16.68 59.166 16.797 59.166 16.939 C 59.166 17.082 59.127 17.198 59.08 17.198 C 59.032 17.198 58.993 17.257 58.993 17.33 C 58.993 17.402 58.9 17.497 58.787 17.54 C 58.673 17.583 58.563 17.67 58.541 17.732 C 58.492 17.877 58.748 18.402 58.87 18.405 C 58.92 18.406 58.998 18.611 59.042 18.86 C 59.122 19.31 59.126 19.314 59.529 19.413 C 59.752 19.468 60.334 19.534 60.823 19.56 C 61.874 19.616 61.715 19.587 61.879 19.751 C 62.153 20.025 62.037 20.064 61.087 20.019 L 60.159 19.974 L 60.994 20.075 C 61.453 20.131 61.85 20.197 61.876 20.223 C 61.901 20.249 61.943 20.521 61.97 20.828 C 61.996 21.134 62.036 21.54 62.058 21.73 C 62.081 21.92 62.12 22.367 62.145 22.723 C 62.171 23.079 62.209 23.506 62.231 23.672 C 62.252 23.838 62.292 24.285 62.318 24.665 C 62.344 25.045 62.384 25.491 62.406 25.658 C 62.428 25.824 62.485 26.465 62.533 27.082 C 62.581 27.699 62.636 28.379 62.655 28.592 C 62.675 28.806 62.715 29.311 62.745 29.715 C 62.775 30.118 62.836 30.876 62.881 31.398 C 62.927 31.92 62.983 32.58 63.007 32.865 C 63.176 34.908 63.227 35.548 63.277 36.239 C 63.331 36.996 63.341 37.026 63.573 37.114 C 63.743 37.178 63.841 37.177 63.907 37.111 C 63.974 37.044 64 37.069 64 37.2 C 64 37.366 63.96 37.381 63.59 37.352 C 63.364 37.335 62.588 37.318 61.864 37.316 C 60.557 37.311 60.547 37.31 60.546 37.117 C 60.546 36.897 60.339 34.083 60.208 32.52 C 60.161 31.95 60.101 31.154 60.075 30.75 C 59.992 29.47 59.852 27.61 59.816 27.319 C 59.781 27.039 59.845 26.989 60.18 27.032 C 60.24 27.04 60.288 27.003 60.288 26.949 C 60.288 26.886 60.197 26.872 60.029 26.909 C 59.771 26.966 59.77 26.966 59.759 26.549 C 59.752 26.32 59.735 25.994 59.72 25.825 C 59.705 25.656 59.614 24.432 59.517 23.106 C 59.42 21.779 59.318 20.529 59.291 20.327 L 59.242 19.96 L 59.657 19.947 C 59.996 19.935 60.017 19.927 59.77 19.9 C 59.604 19.882 59.41 19.845 59.339 19.819 C 59.267 19.792 58.627 19.759 57.914 19.746 L 56.62 19.722 L 57.44 19.819 L 58.26 19.917 L 58.318 20.435 C 58.351 20.72 58.4 21.283 58.429 21.687 C 59.119 31.532 59.157 32.095 59.397 35.843 C 59.428 36.342 59.458 36.847 59.461 36.966 C 59.468 37.177 59.453 37.182 58.765 37.206 C 58.115 37.229 58.065 37.244 58.106 37.4 C 58.144 37.547 58.106 37.57 57.824 37.57 C 57.458 37.57 57.454 37.495 57.818 37.464 C 58.021 37.448 58.034 37.431 57.915 37.343 C 57.808 37.265 57.802 37.232 57.888 37.197 C 57.95 37.172 57.748 37.149 57.44 37.146 C 57.067 37.143 56.921 37.167 57.004 37.22 C 57.073 37.264 57.167 37.276 57.213 37.248 C 57.261 37.218 57.273 37.258 57.239 37.344 C 57.206 37.432 57.217 37.471 57.268 37.44 C 57.315 37.411 57.353 37.428 57.353 37.478 C 57.353 37.59 57.028 37.58 56.792 37.462 Z  M 11.56 36.361 C 11.633 36.244 11.978 36.252 12.1 36.375 C 12.273 36.547 12.452 36.3 12.505 35.816 C 12.532 35.57 12.573 35.116 12.597 34.808 C 12.62 34.499 12.658 34.091 12.681 33.901 C 12.728 33.508 12.787 32.881 12.859 32.002 C 12.886 31.67 12.924 31.242 12.944 31.053 C 12.963 30.863 13.003 30.455 13.033 30.146 C 13.062 29.838 13.097 29.488 13.111 29.369 C 13.124 29.251 13.161 28.843 13.193 28.463 C 13.224 28.083 13.27 27.671 13.294 27.548 C 13.318 27.425 13.354 27.056 13.374 26.728 C 13.394 26.4 13.429 25.977 13.453 25.787 C 13.477 25.597 13.518 25.228 13.545 24.967 C 13.571 24.706 13.608 24.376 13.627 24.233 C 13.646 24.091 13.686 23.702 13.716 23.37 C 13.746 23.038 13.805 22.455 13.848 22.075 C 13.891 21.695 13.948 21.093 13.976 20.737 C 14.05 19.769 14.111 19.444 14.222 19.431 C 14.277 19.425 14.633 19.422 15.013 19.425 L 15.704 19.431 L 15.229 19.353 C 14.822 19.287 14.228 19.259 13.546 19.273 C 13.451 19.275 12.791 19.277 12.08 19.277 C 11.369 19.276 10.699 19.299 10.591 19.326 C 10.435 19.365 10.395 19.339 10.395 19.198 C 10.395 19.101 10.442 18.992 10.5 18.956 C 10.557 18.921 11.072 18.897 11.643 18.905 C 12.25 18.912 12.631 18.887 12.561 18.843 C 12.493 18.801 12.465 18.708 12.497 18.626 C 12.559 18.462 12.726 18.526 12.726 18.714 C 12.726 18.893 13.21 18.878 13.28 18.696 C 13.309 18.618 13.323 18.55 13.31 18.545 C 13.109 18.467 12.92 18.306 12.835 18.139 C 12.733 17.942 12.728 17.941 12.727 18.116 C 12.726 18.217 12.674 18.342 12.61 18.395 C 12.505 18.482 11.543 18.52 9.991 18.497 L 9.458 18.489 L 9.598 18.858 C 9.675 19.061 9.809 19.319 9.894 19.433 C 9.98 19.546 10.05 19.706 10.05 19.789 C 10.05 19.96 10.252 20.161 10.338 20.075 C 10.369 20.044 10.395 19.892 10.395 19.739 L 10.395 19.459 L 11.28 19.401 C 11.766 19.368 12.378 19.355 12.639 19.371 C 13.085 19.398 13.113 19.412 13.099 19.615 C 13.083 19.831 12.998 20.588 12.942 20.996 C 12.926 21.115 12.888 21.465 12.856 21.773 C 12.825 22.082 12.786 22.431 12.77 22.55 C 12.754 22.669 12.719 22.979 12.692 23.241 C 12.666 23.502 12.623 23.91 12.597 24.147 C 12.571 24.384 12.531 24.773 12.507 25.01 C 12.484 25.248 12.35 26.51 12.211 27.816 C 12.071 29.121 11.932 30.558 11.901 31.009 C 11.87 31.46 11.831 31.853 11.813 31.882 C 11.774 31.945 11.633 33.204 11.562 34.117 C 11.535 34.473 11.494 34.939 11.472 35.153 C 11.355 36.285 11.349 36.448 11.425 36.448 C 11.47 36.448 11.531 36.409 11.56 36.361 Z  M 3.757 35.906 C 3.792 35.776 3.863 35.31 3.915 34.871 C 3.967 34.433 4.047 33.802 4.093 33.47 C 4.219 32.571 4.591 29.747 4.661 29.154 C 4.695 28.869 4.732 28.558 4.744 28.463 C 4.756 28.368 4.864 27.63 4.985 26.823 C 5.107 26.016 5.227 25.084 5.253 24.751 C 5.28 24.419 5.341 23.894 5.39 23.586 C 5.438 23.277 5.534 22.578 5.602 22.032 C 5.67 21.486 5.749 20.865 5.777 20.651 C 5.806 20.437 5.856 20.049 5.889 19.788 L 5.949 19.313 L 6.921 19.289 C 7.455 19.275 7.892 19.236 7.892 19.201 C 7.892 19.155 5.229 19.132 4.957 19.177 C 4.933 19.18 4.913 19.446 4.912 19.766 C 4.911 20.087 4.859 20.679 4.796 21.083 C 4.732 21.486 4.669 21.913 4.655 22.032 C 4.592 22.581 4.434 23.638 4.399 23.756 C 4.361 23.885 4.198 25.05 3.964 26.866 C 3.844 27.798 3.713 28.761 3.584 29.671 C 3.543 29.956 3.525 30.215 3.543 30.247 C 3.561 30.278 3.521 30.569 3.454 30.894 C 3.318 31.55 2.941 34.217 2.766 35.757 L 2.722 36.145 L 3.207 36.145 C 3.664 36.144 3.697 36.129 3.757 35.906 Z  M 47.116 16.064 C 47.075 15.999 47.037 15.558 47.03 15.083 C 47.014 13.868 46.913 10.486 46.866 9.559 C 46.844 9.131 46.807 8.18 46.783 7.444 C 46.76 6.708 46.715 5.349 46.683 4.423 C 46.652 3.497 46.621 2.39 46.616 1.963 L 46.606 1.186 L 46.865 1.174 C 47.352 1.153 48.246 1.045 48.619 0.963 C 48.824 0.917 49.023 0.9 49.061 0.923 C 49.099 0.947 49.156 1.521 49.188 2.198 C 49.22 2.876 49.264 3.76 49.286 4.164 C 49.308 4.567 49.365 5.849 49.412 7.012 C 49.459 8.175 49.518 9.574 49.543 10.12 C 49.798 15.792 49.798 15.789 49.617 15.883 C 49.528 15.929 49.086 15.993 48.635 16.025 C 48.184 16.057 47.674 16.105 47.502 16.132 C 47.288 16.165 47.166 16.144 47.116 16.064 Z  M 46.579 0.905 C 46.603 0.783 46.822 0.718 47.729 0.564 C 48.346 0.459 48.942 0.393 49.053 0.417 C 49.165 0.44 49.303 0.42 49.361 0.372 C 49.42 0.323 49.581 0.284 49.72 0.285 C 49.859 0.286 50.517 0.212 51.181 0.122 C 52.426 -0.048 52.606 -0.043 52.606 0.154 C 52.606 0.329 52.56 0.34 51.311 0.458 C 50.418 0.542 50.092 0.607 49.918 0.735 C 49.74 0.865 49.626 0.886 49.4 0.833 C 49.24 0.795 49.09 0.768 49.067 0.772 C 49.043 0.777 48.757 0.806 48.431 0.836 C 48.105 0.867 47.643 0.929 47.405 0.974 C 46.744 1.099 46.546 1.083 46.579 0.905 Z " fill="rgb(0,0,0)" vector-effect="non-scaling-stroke" stroke-width="0.3" stroke="rgb(255,255,255)" stroke-linejoin="miter" stroke-linecap="butt" stroke-miterlimit="4"/></g></svg>